<?xml version="1.0" encoding="UTF-8" standalone="no"?>
<!-- Created with Inkscape (http://www.inkscape.org/) -->

<svg
   width="1080"
   height="1080"
   viewBox="0 0 285.74999 285.75"
   version="1.1"
   id="svg1"
   xmlns="http://www.w3.org/2000/svg"
   xmlns:svg="http://www.w3.org/2000/svg">
  <defs
     id="defs1" />
  <g
     id="g149"
     transform="matrix(1.3764481,0,0,1.3764481,-56.795373,-55.574645)"
     style="display:none">
    <g
       id="g86"
       style="display:inline">
      <circle
         style="fill:#010101;fill-opacity:0;stroke-width:0.264583;stroke-dasharray:none"
         id="path11"
         cx="126.11043"
         cy="119.66442"
         r="62.758667" />
      <path
         style="fill:#000000;fill-opacity:0;stroke:#000000;stroke-width:0.264583;stroke-dasharray:none;stroke-dashoffset:0;stroke-opacity:1"
         d="m 43.476253,53.246279 c 0,190.656161 -0.201207,190.656161 -0.201207,190.656161"
         id="path14" />
      <path
         style="fill:#000000;fill-opacity:0;stroke:#000000;stroke-width:0.264583;stroke-dasharray:none;stroke-dashoffset:0;stroke-opacity:1"
         d="m 244.64123,53.246279 c 0,190.656161 -0.20121,190.656161 -0.20121,190.656161"
         id="path15" />
      <path
         d="m 53.0555,53.2463 c 0,190.6557 -0.2012,190.6557 -0.2012,190.6557"
         style="fill:#000000;fill-opacity:0;stroke:#000000;stroke-width:0.264583;stroke-dasharray:none;stroke-dashoffset:0;stroke-opacity:1"
         id="path27" />
      <path
         d="m 62.6348,53.2463 c 0,190.6557 -0.2012,190.6557 -0.2012,190.6557"
         style="fill:#000000;fill-opacity:0;stroke:#000000;stroke-width:0.264583;stroke-dasharray:none;stroke-dashoffset:0;stroke-opacity:1"
         id="path28" />
      <path
         d="m 72.2141,53.2463 c 0,190.6557 -0.2012,190.6557 -0.2012,190.6557"
         style="fill:#000000;fill-opacity:0;stroke:#000000;stroke-width:0.264583;stroke-dasharray:none;stroke-dashoffset:0;stroke-opacity:1"
         id="path29" />
      <path
         d="m 81.7934,53.2463 c 0,190.6557 -0.2012,190.6557 -0.2012,190.6557"
         style="fill:#000000;fill-opacity:0;stroke:#000000;stroke-width:0.264583;stroke-dasharray:none;stroke-dashoffset:0;stroke-opacity:1"
         id="path30" />
      <path
         d="m 91.3727,53.2463 c 0,190.6557 -0.2012,190.6557 -0.2012,190.6557"
         style="fill:#000000;fill-opacity:0;stroke:#000000;stroke-width:0.264583;stroke-dasharray:none;stroke-dashoffset:0;stroke-opacity:1"
         id="path31" />
      <path
         d="m 100.952,53.2463 c 0,190.6557 -0.201,190.6557 -0.201,190.6557"
         style="fill:#000000;fill-opacity:0;stroke:#000000;stroke-width:0.264583;stroke-dasharray:none;stroke-dashoffset:0;stroke-opacity:1"
         id="path32" />
      <path
         d="m 110.531,53.2463 c 0,190.6557 -0.201,190.6557 -0.201,190.6557"
         style="fill:#000000;fill-opacity:0;stroke:#000000;stroke-width:0.264583;stroke-dasharray:none;stroke-dashoffset:0;stroke-opacity:1"
         id="path33" />
      <path
         d="m 120.111,53.2463 c 0,190.6557 -0.202,190.6557 -0.202,190.6557"
         style="fill:#000000;fill-opacity:0;stroke:#000000;stroke-width:0.264583;stroke-dasharray:none;stroke-dashoffset:0;stroke-opacity:1"
         id="path34" />
      <path
         d="m 129.69,53.2463 c 0,190.6557 -0.201,190.6557 -0.201,190.6557"
         style="fill:#000000;fill-opacity:0;stroke:#000000;stroke-width:0.264583;stroke-dasharray:none;stroke-dashoffset:0;stroke-opacity:1"
         id="path35" />
      <path
         d="m 139.269,53.2463 c 0,190.6557 -0.201,190.6557 -0.201,190.6557"
         style="fill:#000000;fill-opacity:0;stroke:#000000;stroke-width:0.264583;stroke-dasharray:none;stroke-dashoffset:0;stroke-opacity:1"
         id="path36" />
      <path
         d="m 148.848,53.2463 c 0,190.6557 -0.201,190.6557 -0.201,190.6557"
         style="fill:#000000;fill-opacity:0;stroke:#000000;stroke-width:0.264583;stroke-dasharray:none;stroke-dashoffset:0;stroke-opacity:1"
         id="path37" />
      <path
         d="m 158.428,53.2463 c 0,190.6557 -0.202,190.6557 -0.202,190.6557"
         style="fill:#000000;fill-opacity:0;stroke:#000000;stroke-width:0.264583;stroke-dasharray:none;stroke-dashoffset:0;stroke-opacity:1"
         id="path38" />
      <path
         d="m 168.007,53.2463 c 0,190.6557 -0.201,190.6557 -0.201,190.6557"
         style="fill:#000000;fill-opacity:0;stroke:#000000;stroke-width:0.264583;stroke-dasharray:none;stroke-dashoffset:0;stroke-opacity:1"
         id="path39" />
      <path
         d="m 177.586,53.2463 c 0,190.6557 -0.201,190.6557 -0.201,190.6557"
         style="fill:#000000;fill-opacity:0;stroke:#000000;stroke-width:0.264583;stroke-dasharray:none;stroke-dashoffset:0;stroke-opacity:1"
         id="path40" />
      <path
         d="m 187.166,53.2463 c 0,190.6557 -0.202,190.6557 -0.202,190.6557"
         style="fill:#000000;fill-opacity:0;stroke:#000000;stroke-width:0.264583;stroke-dasharray:none;stroke-dashoffset:0;stroke-opacity:1"
         id="path41" />
      <path
         d="m 196.745,53.2463 c 0,190.6557 -0.201,190.6557 -0.201,190.6557"
         style="fill:#000000;fill-opacity:0;stroke:#000000;stroke-width:0.264583;stroke-dasharray:none;stroke-dashoffset:0;stroke-opacity:1"
         id="path42" />
      <path
         d="m 206.324,53.2463 c 0,190.6557 -0.201,190.6557 -0.201,190.6557"
         style="fill:#000000;fill-opacity:0;stroke:#000000;stroke-width:0.264583;stroke-dasharray:none;stroke-dashoffset:0;stroke-opacity:1"
         id="path43" />
      <path
         d="m 215.903,53.2463 c 0,190.6557 -0.201,190.6557 -0.201,190.6557"
         style="fill:#000000;fill-opacity:0;stroke:#000000;stroke-width:0.264583;stroke-dasharray:none;stroke-dashoffset:0;stroke-opacity:1"
         id="path44" />
      <path
         d="m 225.483,53.2463 c 0,190.6557 -0.202,190.6557 -0.202,190.6557"
         style="fill:#000000;fill-opacity:0;stroke:#000000;stroke-width:0.264583;stroke-dasharray:none;stroke-dashoffset:0;stroke-opacity:1"
         id="path45" />
      <path
         d="m 235.062,53.2463 c 0,190.6557 -0.201,190.6557 -0.201,190.6557"
         style="fill:#000000;fill-opacity:0;stroke:#000000;stroke-width:0.264583;stroke-dasharray:none;stroke-dashoffset:0;stroke-opacity:1"
         id="path46" />
      <path
         d="m 53.0555,53.2463 c 0,190.6557 -0.2012,190.6557 -0.2012,190.6557"
         style="fill:#000000;fill-opacity:0;stroke:#000000;stroke-width:0.264583;stroke-dasharray:none;stroke-dashoffset:0;stroke-opacity:1"
         id="path47" />
      <path
         d="m 62.6348,53.2463 c 0,190.6557 -0.2012,190.6557 -0.2012,190.6557"
         style="fill:#000000;fill-opacity:0;stroke:#000000;stroke-width:0.264583;stroke-dasharray:none;stroke-dashoffset:0;stroke-opacity:1"
         id="path48" />
      <path
         d="m 72.2141,53.2463 c 0,190.6557 -0.2012,190.6557 -0.2012,190.6557"
         style="fill:#000000;fill-opacity:0;stroke:#000000;stroke-width:0.264583;stroke-dasharray:none;stroke-dashoffset:0;stroke-opacity:1"
         id="path49" />
      <path
         d="m 81.7934,53.2463 c 0,190.6557 -0.2012,190.6557 -0.2012,190.6557"
         style="fill:#000000;fill-opacity:0;stroke:#000000;stroke-width:0.264583;stroke-dasharray:none;stroke-dashoffset:0;stroke-opacity:1"
         id="path50" />
      <path
         d="m 91.3727,53.2463 c 0,190.6557 -0.2012,190.6557 -0.2012,190.6557"
         style="fill:#000000;fill-opacity:0;stroke:#000000;stroke-width:0.264583;stroke-dasharray:none;stroke-dashoffset:0;stroke-opacity:1"
         id="path51" />
      <path
         d="m 100.952,53.2463 c 0,190.6557 -0.201,190.6557 -0.201,190.6557"
         style="fill:#000000;fill-opacity:0;stroke:#000000;stroke-width:0.264583;stroke-dasharray:none;stroke-dashoffset:0;stroke-opacity:1"
         id="path52" />
      <path
         d="m 110.531,53.2463 c 0,190.6557 -0.201,190.6557 -0.201,190.6557"
         style="fill:#000000;fill-opacity:0;stroke:#000000;stroke-width:0.264583;stroke-dasharray:none;stroke-dashoffset:0;stroke-opacity:1"
         id="path53" />
      <path
         d="m 120.111,53.2463 c 0,190.6557 -0.202,190.6557 -0.202,190.6557"
         style="fill:#000000;fill-opacity:0;stroke:#000000;stroke-width:0.264583;stroke-dasharray:none;stroke-dashoffset:0;stroke-opacity:1"
         id="path54" />
      <path
         d="m 129.69,53.2463 c 0,190.6557 -0.201,190.6557 -0.201,190.6557"
         style="fill:#000000;fill-opacity:0;stroke:#000000;stroke-width:0.264583;stroke-dasharray:none;stroke-dashoffset:0;stroke-opacity:1"
         id="path55" />
      <path
         d="m 139.269,53.2463 c 0,190.6557 -0.201,190.6557 -0.201,190.6557"
         style="fill:#000000;fill-opacity:0;stroke:#000000;stroke-width:0.264583;stroke-dasharray:none;stroke-dashoffset:0;stroke-opacity:1"
         id="path56" />
      <path
         d="m 148.848,53.2463 c 0,190.6557 -0.201,190.6557 -0.201,190.6557"
         style="fill:#000000;fill-opacity:0;stroke:#000000;stroke-width:0.264583;stroke-dasharray:none;stroke-dashoffset:0;stroke-opacity:1"
         id="path57" />
      <path
         d="m 158.428,53.2463 c 0,190.6557 -0.202,190.6557 -0.202,190.6557"
         style="fill:#000000;fill-opacity:0;stroke:#000000;stroke-width:0.264583;stroke-dasharray:none;stroke-dashoffset:0;stroke-opacity:1"
         id="path58" />
      <path
         d="m 168.007,53.2463 c 0,190.6557 -0.201,190.6557 -0.201,190.6557"
         style="fill:#000000;fill-opacity:0;stroke:#000000;stroke-width:0.264583;stroke-dasharray:none;stroke-dashoffset:0;stroke-opacity:1"
         id="path59" />
      <path
         d="m 177.586,53.2463 c 0,190.6557 -0.201,190.6557 -0.201,190.6557"
         style="fill:#000000;fill-opacity:0;stroke:#000000;stroke-width:0.264583;stroke-dasharray:none;stroke-dashoffset:0;stroke-opacity:1"
         id="path60" />
      <path
         d="m 187.166,53.2463 c 0,190.6557 -0.202,190.6557 -0.202,190.6557"
         style="fill:#000000;fill-opacity:0;stroke:#000000;stroke-width:0.264583;stroke-dasharray:none;stroke-dashoffset:0;stroke-opacity:1"
         id="path61" />
      <path
         d="m 196.745,53.2463 c 0,190.6557 -0.201,190.6557 -0.201,190.6557"
         style="fill:#000000;fill-opacity:0;stroke:#000000;stroke-width:0.264583;stroke-dasharray:none;stroke-dashoffset:0;stroke-opacity:1"
         id="path62" />
      <path
         d="m 206.324,53.2463 c 0,190.6557 -0.201,190.6557 -0.201,190.6557"
         style="fill:#000000;fill-opacity:0;stroke:#000000;stroke-width:0.264583;stroke-dasharray:none;stroke-dashoffset:0;stroke-opacity:1"
         id="path63" />
      <path
         d="m 215.903,53.2463 c 0,190.6557 -0.201,190.6557 -0.201,190.6557"
         style="fill:#000000;fill-opacity:0;stroke:#000000;stroke-width:0.264583;stroke-dasharray:none;stroke-dashoffset:0;stroke-opacity:1"
         id="path64" />
      <path
         d="m 225.483,53.2463 c 0,190.6557 -0.202,190.6557 -0.202,190.6557"
         style="fill:#000000;fill-opacity:0;stroke:#000000;stroke-width:0.264583;stroke-dasharray:none;stroke-dashoffset:0;stroke-opacity:1"
         id="path65" />
      <path
         d="m 235.062,53.2463 c 0,190.6557 -0.201,190.6557 -0.201,190.6557"
         style="fill:#000000;fill-opacity:0;stroke:#000000;stroke-width:0.264583;stroke-dasharray:none;stroke-dashoffset:0;stroke-opacity:1"
         id="path66" />
      <path
         d="m 53.0555,53.2463 c 0,190.6557 -0.2012,190.6557 -0.2012,190.6557"
         style="fill:#000000;fill-opacity:0;stroke:#000000;stroke-width:0.264583;stroke-dasharray:none;stroke-dashoffset:0;stroke-opacity:1"
         id="path67" />
      <path
         d="m 62.6348,53.2463 c 0,190.6557 -0.2012,190.6557 -0.2012,190.6557"
         style="fill:#000000;fill-opacity:0;stroke:#000000;stroke-width:0.264583;stroke-dasharray:none;stroke-dashoffset:0;stroke-opacity:1"
         id="path68" />
      <path
         d="m 72.2141,53.2463 c 0,190.6557 -0.2012,190.6557 -0.2012,190.6557"
         style="fill:#000000;fill-opacity:0;stroke:#000000;stroke-width:0.264583;stroke-dasharray:none;stroke-dashoffset:0;stroke-opacity:1"
         id="path69" />
      <path
         d="m 81.7934,53.2463 c 0,190.6557 -0.2012,190.6557 -0.2012,190.6557"
         style="fill:#000000;fill-opacity:0;stroke:#000000;stroke-width:0.264583;stroke-dasharray:none;stroke-dashoffset:0;stroke-opacity:1"
         id="path70" />
      <path
         d="m 91.3727,53.2463 c 0,190.6557 -0.2012,190.6557 -0.2012,190.6557"
         style="fill:#000000;fill-opacity:0;stroke:#000000;stroke-width:0.264583;stroke-dasharray:none;stroke-dashoffset:0;stroke-opacity:1"
         id="path71" />
      <path
         d="m 100.952,53.2463 c 0,190.6557 -0.201,190.6557 -0.201,190.6557"
         style="fill:#000000;fill-opacity:0;stroke:#000000;stroke-width:0.264583;stroke-dasharray:none;stroke-dashoffset:0;stroke-opacity:1"
         id="path72" />
      <path
         d="m 110.531,53.2463 c 0,190.6557 -0.201,190.6557 -0.201,190.6557"
         style="fill:#000000;fill-opacity:0;stroke:#000000;stroke-width:0.264583;stroke-dasharray:none;stroke-dashoffset:0;stroke-opacity:1"
         id="path73" />
      <path
         d="m 120.111,53.2463 c 0,190.6557 -0.202,190.6557 -0.202,190.6557"
         style="fill:#000000;fill-opacity:0;stroke:#000000;stroke-width:0.264583;stroke-dasharray:none;stroke-dashoffset:0;stroke-opacity:1"
         id="path74" />
      <path
         d="m 129.69,53.2463 c 0,190.6557 -0.201,190.6557 -0.201,190.6557"
         style="fill:#000000;fill-opacity:0;stroke:#000000;stroke-width:0.264583;stroke-dasharray:none;stroke-dashoffset:0;stroke-opacity:1"
         id="path75" />
      <path
         d="m 139.269,53.2463 c 0,190.6557 -0.201,190.6557 -0.201,190.6557"
         style="fill:#000000;fill-opacity:0;stroke:#000000;stroke-width:0.264583;stroke-dasharray:none;stroke-dashoffset:0;stroke-opacity:1"
         id="path76" />
      <path
         d="m 148.848,53.2463 c 0,190.6557 -0.201,190.6557 -0.201,190.6557"
         style="fill:#000000;fill-opacity:0;stroke:#000000;stroke-width:0.264583;stroke-dasharray:none;stroke-dashoffset:0;stroke-opacity:1"
         id="path77" />
      <path
         d="m 158.428,53.2463 c 0,190.6557 -0.202,190.6557 -0.202,190.6557"
         style="fill:#000000;fill-opacity:0;stroke:#000000;stroke-width:0.264583;stroke-dasharray:none;stroke-dashoffset:0;stroke-opacity:1"
         id="path78" />
      <path
         d="m 168.007,53.2463 c 0,190.6557 -0.201,190.6557 -0.201,190.6557"
         style="fill:#000000;fill-opacity:0;stroke:#000000;stroke-width:0.264583;stroke-dasharray:none;stroke-dashoffset:0;stroke-opacity:1"
         id="path79" />
      <path
         d="m 177.586,53.2463 c 0,190.6557 -0.201,190.6557 -0.201,190.6557"
         style="fill:#000000;fill-opacity:0;stroke:#000000;stroke-width:0.264583;stroke-dasharray:none;stroke-dashoffset:0;stroke-opacity:1"
         id="path80" />
      <path
         d="m 187.166,53.2463 c 0,190.6557 -0.202,190.6557 -0.202,190.6557"
         style="fill:#000000;fill-opacity:0;stroke:#000000;stroke-width:0.264583;stroke-dasharray:none;stroke-dashoffset:0;stroke-opacity:1"
         id="path81" />
      <path
         d="m 196.745,53.2463 c 0,190.6557 -0.201,190.6557 -0.201,190.6557"
         style="fill:#000000;fill-opacity:0;stroke:#000000;stroke-width:0.264583;stroke-dasharray:none;stroke-dashoffset:0;stroke-opacity:1"
         id="path82" />
      <path
         d="m 206.324,53.2463 c 0,190.6557 -0.201,190.6557 -0.201,190.6557"
         style="fill:#000000;fill-opacity:0;stroke:#000000;stroke-width:0.264583;stroke-dasharray:none;stroke-dashoffset:0;stroke-opacity:1"
         id="path83" />
      <path
         d="m 215.903,53.2463 c 0,190.6557 -0.201,190.6557 -0.201,190.6557"
         style="fill:#000000;fill-opacity:0;stroke:#000000;stroke-width:0.264583;stroke-dasharray:none;stroke-dashoffset:0;stroke-opacity:1"
         id="path84" />
      <path
         d="m 225.483,53.2463 c 0,190.6557 -0.202,190.6557 -0.202,190.6557"
         style="fill:#000000;fill-opacity:0;stroke:#000000;stroke-width:0.264583;stroke-dasharray:none;stroke-dashoffset:0;stroke-opacity:1"
         id="path85" />
      <path
         d="m 235.062,53.2463 c 0,190.6557 -0.201,190.6557 -0.201,190.6557"
         style="fill:#000000;fill-opacity:0;stroke:#000000;stroke-width:0.264583;stroke-dasharray:none;stroke-dashoffset:0;stroke-opacity:1"
         id="path86" />
    </g>
    <g
       id="g148"
       style="display:inline"
       transform="rotate(90,143.95853,148.64051)">
      <circle
         style="fill:#010101;fill-opacity:0;stroke-width:0.264583;stroke-dasharray:none"
         id="circle86"
         cx="126.11043"
         cy="119.66442"
         r="62.758667" />
      <path
         style="fill:#000000;fill-opacity:0;stroke:#000000;stroke-width:0.264583;stroke-dasharray:none;stroke-dashoffset:0;stroke-opacity:1"
         d="m 43.476253,53.246279 c 0,190.656161 -0.201207,190.656161 -0.201207,190.656161"
         id="path87" />
      <path
         style="fill:#000000;fill-opacity:0;stroke:#000000;stroke-width:0.264583;stroke-dasharray:none;stroke-dashoffset:0;stroke-opacity:1"
         d="m 244.64123,53.246279 c 0,190.656161 -0.20121,190.656161 -0.20121,190.656161"
         id="path88" />
      <path
         d="m 53.0555,53.2463 c 0,190.6557 -0.2012,190.6557 -0.2012,190.6557"
         style="fill:#000000;fill-opacity:0;stroke:#000000;stroke-width:0.264583;stroke-dasharray:none;stroke-dashoffset:0;stroke-opacity:1"
         id="path89" />
      <path
         d="m 62.6348,53.2463 c 0,190.6557 -0.2012,190.6557 -0.2012,190.6557"
         style="fill:#000000;fill-opacity:0;stroke:#000000;stroke-width:0.264583;stroke-dasharray:none;stroke-dashoffset:0;stroke-opacity:1"
         id="path90" />
      <path
         d="m 72.2141,53.2463 c 0,190.6557 -0.2012,190.6557 -0.2012,190.6557"
         style="fill:#000000;fill-opacity:0;stroke:#000000;stroke-width:0.264583;stroke-dasharray:none;stroke-dashoffset:0;stroke-opacity:1"
         id="path91" />
      <path
         d="m 81.7934,53.2463 c 0,190.6557 -0.2012,190.6557 -0.2012,190.6557"
         style="fill:#000000;fill-opacity:0;stroke:#000000;stroke-width:0.264583;stroke-dasharray:none;stroke-dashoffset:0;stroke-opacity:1"
         id="path92" />
      <path
         d="m 91.3727,53.2463 c 0,190.6557 -0.2012,190.6557 -0.2012,190.6557"
         style="fill:#000000;fill-opacity:0;stroke:#000000;stroke-width:0.264583;stroke-dasharray:none;stroke-dashoffset:0;stroke-opacity:1"
         id="path93" />
      <path
         d="m 100.952,53.2463 c 0,190.6557 -0.201,190.6557 -0.201,190.6557"
         style="fill:#000000;fill-opacity:0;stroke:#000000;stroke-width:0.264583;stroke-dasharray:none;stroke-dashoffset:0;stroke-opacity:1"
         id="path94" />
      <path
         d="m 110.531,53.2463 c 0,190.6557 -0.201,190.6557 -0.201,190.6557"
         style="fill:#000000;fill-opacity:0;stroke:#000000;stroke-width:0.264583;stroke-dasharray:none;stroke-dashoffset:0;stroke-opacity:1"
         id="path95" />
      <path
         d="m 120.111,53.2463 c 0,190.6557 -0.202,190.6557 -0.202,190.6557"
         style="fill:#000000;fill-opacity:0;stroke:#000000;stroke-width:0.264583;stroke-dasharray:none;stroke-dashoffset:0;stroke-opacity:1"
         id="path96" />
      <path
         d="m 129.69,53.2463 c 0,190.6557 -0.201,190.6557 -0.201,190.6557"
         style="fill:#000000;fill-opacity:0;stroke:#000000;stroke-width:0.264583;stroke-dasharray:none;stroke-dashoffset:0;stroke-opacity:1"
         id="path97" />
      <path
         d="m 139.269,53.2463 c 0,190.6557 -0.201,190.6557 -0.201,190.6557"
         style="fill:#000000;fill-opacity:0;stroke:#000000;stroke-width:0.264583;stroke-dasharray:none;stroke-dashoffset:0;stroke-opacity:1"
         id="path98" />
      <path
         d="m 148.848,53.2463 c 0,190.6557 -0.201,190.6557 -0.201,190.6557"
         style="fill:#000000;fill-opacity:0;stroke:#000000;stroke-width:0.264583;stroke-dasharray:none;stroke-dashoffset:0;stroke-opacity:1"
         id="path99" />
      <path
         d="m 158.428,53.2463 c 0,190.6557 -0.202,190.6557 -0.202,190.6557"
         style="fill:#000000;fill-opacity:0;stroke:#000000;stroke-width:0.264583;stroke-dasharray:none;stroke-dashoffset:0;stroke-opacity:1"
         id="path100" />
      <path
         d="m 168.007,53.2463 c 0,190.6557 -0.201,190.6557 -0.201,190.6557"
         style="fill:#000000;fill-opacity:0;stroke:#000000;stroke-width:0.264583;stroke-dasharray:none;stroke-dashoffset:0;stroke-opacity:1"
         id="path101" />
      <path
         d="m 177.586,53.2463 c 0,190.6557 -0.201,190.6557 -0.201,190.6557"
         style="fill:#000000;fill-opacity:0;stroke:#000000;stroke-width:0.264583;stroke-dasharray:none;stroke-dashoffset:0;stroke-opacity:1"
         id="path102" />
      <path
         d="m 187.166,53.2463 c 0,190.6557 -0.202,190.6557 -0.202,190.6557"
         style="fill:#000000;fill-opacity:0;stroke:#000000;stroke-width:0.264583;stroke-dasharray:none;stroke-dashoffset:0;stroke-opacity:1"
         id="path103" />
      <path
         d="m 196.745,53.2463 c 0,190.6557 -0.201,190.6557 -0.201,190.6557"
         style="fill:#000000;fill-opacity:0;stroke:#000000;stroke-width:0.264583;stroke-dasharray:none;stroke-dashoffset:0;stroke-opacity:1"
         id="path104" />
      <path
         d="m 206.324,53.2463 c 0,190.6557 -0.201,190.6557 -0.201,190.6557"
         style="fill:#000000;fill-opacity:0;stroke:#000000;stroke-width:0.264583;stroke-dasharray:none;stroke-dashoffset:0;stroke-opacity:1"
         id="path105" />
      <path
         d="m 215.903,53.2463 c 0,190.6557 -0.201,190.6557 -0.201,190.6557"
         style="fill:#000000;fill-opacity:0;stroke:#000000;stroke-width:0.264583;stroke-dasharray:none;stroke-dashoffset:0;stroke-opacity:1"
         id="path106" />
      <path
         d="m 225.483,53.2463 c 0,190.6557 -0.202,190.6557 -0.202,190.6557"
         style="fill:#000000;fill-opacity:0;stroke:#000000;stroke-width:0.264583;stroke-dasharray:none;stroke-dashoffset:0;stroke-opacity:1"
         id="path107" />
      <path
         d="m 235.062,53.2463 c 0,190.6557 -0.201,190.6557 -0.201,190.6557"
         style="fill:#000000;fill-opacity:0;stroke:#000000;stroke-width:0.264583;stroke-dasharray:none;stroke-dashoffset:0;stroke-opacity:1"
         id="path108" />
      <path
         d="m 53.0555,53.2463 c 0,190.6557 -0.2012,190.6557 -0.2012,190.6557"
         style="fill:#000000;fill-opacity:0;stroke:#000000;stroke-width:0.264583;stroke-dasharray:none;stroke-dashoffset:0;stroke-opacity:1"
         id="path109" />
      <path
         d="m 62.6348,53.2463 c 0,190.6557 -0.2012,190.6557 -0.2012,190.6557"
         style="fill:#000000;fill-opacity:0;stroke:#000000;stroke-width:0.264583;stroke-dasharray:none;stroke-dashoffset:0;stroke-opacity:1"
         id="path110" />
      <path
         d="m 72.2141,53.2463 c 0,190.6557 -0.2012,190.6557 -0.2012,190.6557"
         style="fill:#000000;fill-opacity:0;stroke:#000000;stroke-width:0.264583;stroke-dasharray:none;stroke-dashoffset:0;stroke-opacity:1"
         id="path111" />
      <path
         d="m 81.7934,53.2463 c 0,190.6557 -0.2012,190.6557 -0.2012,190.6557"
         style="fill:#000000;fill-opacity:0;stroke:#000000;stroke-width:0.264583;stroke-dasharray:none;stroke-dashoffset:0;stroke-opacity:1"
         id="path112" />
      <path
         d="m 91.3727,53.2463 c 0,190.6557 -0.2012,190.6557 -0.2012,190.6557"
         style="fill:#000000;fill-opacity:0;stroke:#000000;stroke-width:0.264583;stroke-dasharray:none;stroke-dashoffset:0;stroke-opacity:1"
         id="path113" />
      <path
         d="m 100.952,53.2463 c 0,190.6557 -0.201,190.6557 -0.201,190.6557"
         style="fill:#000000;fill-opacity:0;stroke:#000000;stroke-width:0.264583;stroke-dasharray:none;stroke-dashoffset:0;stroke-opacity:1"
         id="path114" />
      <path
         d="m 110.531,53.2463 c 0,190.6557 -0.201,190.6557 -0.201,190.6557"
         style="fill:#000000;fill-opacity:0;stroke:#000000;stroke-width:0.264583;stroke-dasharray:none;stroke-dashoffset:0;stroke-opacity:1"
         id="path115" />
      <path
         d="m 120.111,53.2463 c 0,190.6557 -0.202,190.6557 -0.202,190.6557"
         style="fill:#000000;fill-opacity:0;stroke:#000000;stroke-width:0.264583;stroke-dasharray:none;stroke-dashoffset:0;stroke-opacity:1"
         id="path116" />
      <path
         d="m 129.69,53.2463 c 0,190.6557 -0.201,190.6557 -0.201,190.6557"
         style="fill:#000000;fill-opacity:0;stroke:#000000;stroke-width:0.264583;stroke-dasharray:none;stroke-dashoffset:0;stroke-opacity:1"
         id="path117" />
      <path
         d="m 139.269,53.2463 c 0,190.6557 -0.201,190.6557 -0.201,190.6557"
         style="fill:#000000;fill-opacity:0;stroke:#000000;stroke-width:0.264583;stroke-dasharray:none;stroke-dashoffset:0;stroke-opacity:1"
         id="path118" />
      <path
         d="m 148.848,53.2463 c 0,190.6557 -0.201,190.6557 -0.201,190.6557"
         style="fill:#000000;fill-opacity:0;stroke:#000000;stroke-width:0.264583;stroke-dasharray:none;stroke-dashoffset:0;stroke-opacity:1"
         id="path119" />
      <path
         d="m 158.428,53.2463 c 0,190.6557 -0.202,190.6557 -0.202,190.6557"
         style="fill:#000000;fill-opacity:0;stroke:#000000;stroke-width:0.264583;stroke-dasharray:none;stroke-dashoffset:0;stroke-opacity:1"
         id="path120" />
      <path
         d="m 168.007,53.2463 c 0,190.6557 -0.201,190.6557 -0.201,190.6557"
         style="fill:#000000;fill-opacity:0;stroke:#000000;stroke-width:0.264583;stroke-dasharray:none;stroke-dashoffset:0;stroke-opacity:1"
         id="path121" />
      <path
         d="m 177.586,53.2463 c 0,190.6557 -0.201,190.6557 -0.201,190.6557"
         style="fill:#000000;fill-opacity:0;stroke:#000000;stroke-width:0.264583;stroke-dasharray:none;stroke-dashoffset:0;stroke-opacity:1"
         id="path122" />
      <path
         d="m 187.166,53.2463 c 0,190.6557 -0.202,190.6557 -0.202,190.6557"
         style="fill:#000000;fill-opacity:0;stroke:#000000;stroke-width:0.264583;stroke-dasharray:none;stroke-dashoffset:0;stroke-opacity:1"
         id="path123" />
      <path
         d="m 196.745,53.2463 c 0,190.6557 -0.201,190.6557 -0.201,190.6557"
         style="fill:#000000;fill-opacity:0;stroke:#000000;stroke-width:0.264583;stroke-dasharray:none;stroke-dashoffset:0;stroke-opacity:1"
         id="path124" />
      <path
         d="m 206.324,53.2463 c 0,190.6557 -0.201,190.6557 -0.201,190.6557"
         style="fill:#000000;fill-opacity:0;stroke:#000000;stroke-width:0.264583;stroke-dasharray:none;stroke-dashoffset:0;stroke-opacity:1"
         id="path125" />
      <path
         d="m 215.903,53.2463 c 0,190.6557 -0.201,190.6557 -0.201,190.6557"
         style="fill:#000000;fill-opacity:0;stroke:#000000;stroke-width:0.264583;stroke-dasharray:none;stroke-dashoffset:0;stroke-opacity:1"
         id="path126" />
      <path
         d="m 225.483,53.2463 c 0,190.6557 -0.202,190.6557 -0.202,190.6557"
         style="fill:#000000;fill-opacity:0;stroke:#000000;stroke-width:0.264583;stroke-dasharray:none;stroke-dashoffset:0;stroke-opacity:1"
         id="path127" />
      <path
         d="m 235.062,53.2463 c 0,190.6557 -0.201,190.6557 -0.201,190.6557"
         style="fill:#000000;fill-opacity:0;stroke:#000000;stroke-width:0.264583;stroke-dasharray:none;stroke-dashoffset:0;stroke-opacity:1"
         id="path128" />
      <path
         d="m 53.0555,53.2463 c 0,190.6557 -0.2012,190.6557 -0.2012,190.6557"
         style="fill:#000000;fill-opacity:0;stroke:#000000;stroke-width:0.264583;stroke-dasharray:none;stroke-dashoffset:0;stroke-opacity:1"
         id="path129" />
      <path
         d="m 62.6348,53.2463 c 0,190.6557 -0.2012,190.6557 -0.2012,190.6557"
         style="fill:#000000;fill-opacity:0;stroke:#000000;stroke-width:0.264583;stroke-dasharray:none;stroke-dashoffset:0;stroke-opacity:1"
         id="path130" />
      <path
         d="m 72.2141,53.2463 c 0,190.6557 -0.2012,190.6557 -0.2012,190.6557"
         style="fill:#000000;fill-opacity:0;stroke:#000000;stroke-width:0.264583;stroke-dasharray:none;stroke-dashoffset:0;stroke-opacity:1"
         id="path131" />
      <path
         d="m 81.7934,53.2463 c 0,190.6557 -0.2012,190.6557 -0.2012,190.6557"
         style="fill:#000000;fill-opacity:0;stroke:#000000;stroke-width:0.264583;stroke-dasharray:none;stroke-dashoffset:0;stroke-opacity:1"
         id="path132" />
      <path
         d="m 91.3727,53.2463 c 0,190.6557 -0.2012,190.6557 -0.2012,190.6557"
         style="fill:#000000;fill-opacity:0;stroke:#000000;stroke-width:0.264583;stroke-dasharray:none;stroke-dashoffset:0;stroke-opacity:1"
         id="path133" />
      <path
         d="m 100.952,53.2463 c 0,190.6557 -0.201,190.6557 -0.201,190.6557"
         style="fill:#000000;fill-opacity:0;stroke:#000000;stroke-width:0.264583;stroke-dasharray:none;stroke-dashoffset:0;stroke-opacity:1"
         id="path134" />
      <path
         d="m 110.531,53.2463 c 0,190.6557 -0.201,190.6557 -0.201,190.6557"
         style="fill:#000000;fill-opacity:0;stroke:#000000;stroke-width:0.264583;stroke-dasharray:none;stroke-dashoffset:0;stroke-opacity:1"
         id="path135" />
      <path
         d="m 120.111,53.2463 c 0,190.6557 -0.202,190.6557 -0.202,190.6557"
         style="fill:#000000;fill-opacity:0;stroke:#000000;stroke-width:0.264583;stroke-dasharray:none;stroke-dashoffset:0;stroke-opacity:1"
         id="path136" />
      <path
         d="m 129.69,53.2463 c 0,190.6557 -0.201,190.6557 -0.201,190.6557"
         style="fill:#000000;fill-opacity:0;stroke:#000000;stroke-width:0.264583;stroke-dasharray:none;stroke-dashoffset:0;stroke-opacity:1"
         id="path137" />
      <path
         d="m 139.269,53.2463 c 0,190.6557 -0.201,190.6557 -0.201,190.6557"
         style="fill:#000000;fill-opacity:0;stroke:#000000;stroke-width:0.264583;stroke-dasharray:none;stroke-dashoffset:0;stroke-opacity:1"
         id="path138" />
      <path
         d="m 148.848,53.2463 c 0,190.6557 -0.201,190.6557 -0.201,190.6557"
         style="fill:#000000;fill-opacity:0;stroke:#000000;stroke-width:0.264583;stroke-dasharray:none;stroke-dashoffset:0;stroke-opacity:1"
         id="path139" />
      <path
         d="m 158.428,53.2463 c 0,190.6557 -0.202,190.6557 -0.202,190.6557"
         style="fill:#000000;fill-opacity:0;stroke:#000000;stroke-width:0.264583;stroke-dasharray:none;stroke-dashoffset:0;stroke-opacity:1"
         id="path140" />
      <path
         d="m 168.007,53.2463 c 0,190.6557 -0.201,190.6557 -0.201,190.6557"
         style="fill:#000000;fill-opacity:0;stroke:#000000;stroke-width:0.264583;stroke-dasharray:none;stroke-dashoffset:0;stroke-opacity:1"
         id="path141" />
      <path
         d="m 177.586,53.2463 c 0,190.6557 -0.201,190.6557 -0.201,190.6557"
         style="fill:#000000;fill-opacity:0;stroke:#000000;stroke-width:0.264583;stroke-dasharray:none;stroke-dashoffset:0;stroke-opacity:1"
         id="path142" />
      <path
         d="m 187.166,53.2463 c 0,190.6557 -0.202,190.6557 -0.202,190.6557"
         style="fill:#000000;fill-opacity:0;stroke:#000000;stroke-width:0.264583;stroke-dasharray:none;stroke-dashoffset:0;stroke-opacity:1"
         id="path143" />
      <path
         d="m 196.745,53.2463 c 0,190.6557 -0.201,190.6557 -0.201,190.6557"
         style="fill:#000000;fill-opacity:0;stroke:#000000;stroke-width:0.264583;stroke-dasharray:none;stroke-dashoffset:0;stroke-opacity:1"
         id="path144" />
      <path
         d="m 206.324,53.2463 c 0,190.6557 -0.201,190.6557 -0.201,190.6557"
         style="fill:#000000;fill-opacity:0;stroke:#000000;stroke-width:0.264583;stroke-dasharray:none;stroke-dashoffset:0;stroke-opacity:1"
         id="path145" />
      <path
         d="m 215.903,53.2463 c 0,190.6557 -0.201,190.6557 -0.201,190.6557"
         style="fill:#000000;fill-opacity:0;stroke:#000000;stroke-width:0.264583;stroke-dasharray:none;stroke-dashoffset:0;stroke-opacity:1"
         id="path146" />
      <path
         d="m 225.483,53.2463 c 0,190.6557 -0.202,190.6557 -0.202,190.6557"
         style="fill:#000000;fill-opacity:0;stroke:#000000;stroke-width:0.264583;stroke-dasharray:none;stroke-dashoffset:0;stroke-opacity:1"
         id="path147" />
      <path
         d="m 235.062,53.2463 c 0,190.6557 -0.201,190.6557 -0.201,190.6557"
         style="fill:#000000;fill-opacity:0;stroke:#000000;stroke-width:0.264583;stroke-dasharray:none;stroke-dashoffset:0;stroke-opacity:1"
         id="path148" />
    </g>
  </g>
  <circle
     style="display:none;fill:#000000;fill-opacity:0;stroke:#000000;stroke-width:0.573317;stroke-dasharray:0.573317, 1.71995;stroke-dashoffset:0;stroke-opacity:1"
     id="path273"
     cx="134.69432"
     cy="155.90234"
     r="91.723633" />
  <circle
     style="display:none;fill:#000000;fill-opacity:0;stroke:#000000;stroke-width:0.396875;stroke-dasharray:0.396875, 2.38125;stroke-dashoffset:0;stroke-opacity:1"
     id="path274"
     cx="135.11435"
     cy="116.63963"
     r="51.802845" />
  <circle
     style="display:none;fill:#000000;fill-opacity:0;stroke:#000000;stroke-width:0.396875;stroke-dasharray:0.396875, 2.38125;stroke-dashoffset:0;stroke-opacity:1"
     id="circle274"
     cx="187.19374"
     cy="116.63963"
     r="51.802845" />
  <g
     id="g277"
     transform="matrix(2.5528947,0,0,2.5528947,-327.44321,-152.03652)">
    <path
       style="fill:#3b82f6;fill-opacity:0.6;stroke:none;stroke-width:0.396875;stroke-dasharray:0.396875, 2.38125;stroke-dashoffset:0;stroke-opacity:1"
       d="m 185.28013,129.36378 h 52.22511 c 0,0 -8.44828,36.84668 -50.11986,39.71674 -3.16821,0 -52.66454,0.0357 -52.66454,0.0357 0,0 38.94171,-0.58131 50.55929,-39.75248 z"
       id="path276" />
    <path
       style="fill:#3b82f6;fill-opacity:0.6;stroke:none;stroke-width:0;stroke-dasharray:none;stroke-dashoffset:0;stroke-opacity:1"
       d="m 134.89716,64.179727 c 0,0 45.60996,-2.013146 75.03804,39.313383 15.49363,21.22139 16.42691,46.48933 16.42691,46.48933 0,0 -11.25332,16.91344 -38.72565,19.04219 -4.78349,0 -52.78073,-0.0815 -52.78073,-0.0815 z"
       id="path277" />
  </g>
</svg>
